<?xml version="1.0"?><svg width="295.672" height="372.082" xmlns="http://www.w3.org/2000/svg">

 <g>
  <title>Layer 1</title>
  <g id="svg_58">
   <path id="svg_2" fill-rule="evenodd" fill="#ABD148" d="m125.68306,75.999992c-47.26796,-1.474007 -75.110352,18.658646 -95.088011,34.906975c-19.836478,16.305061 -20.330624,40.18132 -23.542574,61.56218c-3.317837,21.23912 -5.599331,47.334549 -3.580761,66.227386c2.01857,18.892853 6.352717,35.221039 14.894394,48.151642c8.50639,12.846344 16.560001,27.819946 28.596016,37.7164c12.000706,9.78299 22.074764,22.220856 42.702358,30.174316c20.627594,7.953491 52.617714,12.888 77.696754,10.429657c25.079041,-2.458344 49.527802,-14.901978 81.613037,-27.946838c17.682404,-11.739624 31.337036,-26.608948 36.913818,-46.373474c5.258148,-19.935486 9.305206,-42.845123 6.416565,-67.646744c-2.888641,-24.801605 -3.693512,-58.516418 -16.436432,-78.819763c-12.778229,-20.360031 -32.314819,-44.375717 -50.127899,-53.724159c-17.81308,-9.348442 -52.789307,-13.183571 -100.057266,-14.657578z" clip-rule="evenodd"/>
   <path id="svg_3" fill-rule="evenodd" fill="#9ED231" d="m154.88266,364.259766c-8.598312,-2.325165 -44.177986,-4.434509 -59.725105,-11.887848c-15.476936,-7.482178 -24.696045,-12.008667 -38.593719,-23.077026c-14.038033,-11.237274 -30.281542,-36.689392 -38.283226,-47.646393c-7.966605,-10.929016 -10.774209,-27.378601 -5.860895,-23.400116c5.018595,4.036133 23.429869,48.361084 30.483965,56.15152c6.773369,7.594238 0.737007,-4.147461 5.860897,-1.401184c5.194065,2.802307 16.915844,13.591217 24.601673,17.766663c7.545448,4.063324 14.42408,2.213806 20.495544,6.557404c5.966156,4.315613 6.352203,13.591217 15.231285,19.167847c8.808876,5.520538 38.7686,-2.263092 45.227097,1.239746c6.316147,3.390808 8.84491,8.631104 0.562485,6.529388z" clip-rule="evenodd"/>
   <path id="svg_4" fill-rule="evenodd" fill="#E7F2D6" d="m17.599995,247.06012c-3.671449,-18.397186 -0.704412,-53.187973 1.814421,-73.518753c2.518837,-20.33078 7.79941,-34.524429 14.715906,-47.807373c6.9165,-13.282951 17.944637,-19.854347 29.490944,-27.140358c11.546291,-7.370079 30.813503,-13.254936 45.764011,-14.740158c14.845222,-1.541275 37.189629,0.747803 54.316032,2.384857c17.126404,1.637054 44.051636,6.389099 61.565063,21.15728c17.372101,14.740158 35.648117,43.826782 47.826157,63.667145c12.037567,19.812347 8.35556,48.142349 9.803986,67.226089c1.448425,19.08374 -3.560791,31.014099 -7.026062,44.959259c-3.465271,13.94516 -6.641174,20.969971 -15.801971,31.955017c-9.474731,10.844971 -19.900208,17.523254 -36.079071,24.390503c-16.178864,6.867249 -40.042267,13.770538 -59.871002,13c-19.82872,-0.770569 -45.922028,-4.103577 -65.189232,-12.818756c-19.267197,-8.715149 -40.256859,-23.76355 -52.575245,-36.570099c-12.248199,-12.750519 -25.082485,-37.747467 -28.753937,-56.144653z" clip-rule="evenodd"/>
   <path id="svg_5" fill-rule="evenodd" fill="#ABD148" d="m144.094345,209.109772c-26.286232,-16.253403 -46.395729,-29.200073 -61.276047,-39.484558c-14.845245,-10.256454 -22.636356,-13.843414 -27.304016,-21.801987c-4.702751,-8.070648 -6.84354,-18.01886 -0.736988,-25.949394c6.071445,-8.01461 26.216045,-25.388947 36.884953,-21.213501c10.598724,4.287529 19.021545,30.909492 26.602089,46.574425c7.510361,15.664902 13.616905,30.853424 18.460014,46.546387c2.456665,5.100204 4.91333,10.200409 7.369995,15.328629z" clip-rule="evenodd"/>
   <path id="svg_6" fill-rule="evenodd" fill="#ABD148" d="m137.46138,177.864014c-2.983109,-10.648788 -7.124329,-22.026184 -12.564041,-34.776703c-5.509941,-12.89061 -20.776314,-32.478775 -19.934029,-41.250008c0.912468,-8.715187 16.986031,-11.209244 25.09301,-10.620758c8.071838,0.588486 24.512024,-2.231659 31.881989,6.651672c-2.491714,-0.308258 -2.491714,-0.308258 0,0c2.492737,0.280228 11.616486,-2.55011 14.775055,1.765457c3.05426,4.231491 -3.946289,14.729958 -5.315994,31.095451c-1.578323,16.50563 -5.579132,40.829681 -12.528961,74.26123c-1.510056,-0.924728 -2.984039,-1.317062 -4.42099,-1.176941c-1.510086,0.056046 -2.94899,0.644531 -4.458054,1.765457c-4.175354,-9.21962 -8.351685,-18.467239 -12.527985,-27.714859z" clip-rule="evenodd"/>
   <path id="svg_7" fill-rule="evenodd" fill="#ABD148" d="m168.450333,203.22493c-0.141342,-8.883331 8.178162,-36.093781 11.828049,-49.516846c3.54364,-13.479111 9.166672,-50.770905 14.080963,-53.657288c4.842148,-2.802307 12.317413,7.342056 19.19606,13.563187c6.843567,6.052994 18.038864,15.188522 21.407028,22.978958c3.12442,7.818436 28.537354,25.720963 20.289032,33.595459c-8.492081,7.76239 -64.094559,32.56012 -74.237061,35.978973c-10.037231,3.334732 -12.459732,5.74472 -12.564072,-2.942444z" clip-rule="evenodd"/>
   <path id="svg_8" fill-rule="evenodd" fill="#ABD148" d="m175.855423,216.199615c2.878799,-3.026489 14.495255,-4.231476 25.093018,-8.266815c10.63382,-4.09137 29.409683,-14.151657 37.658035,-15.91713c7.930496,-1.849518 25.36087,-13.364288 29.817963,-7.675583c4.386871,5.744705 4.406342,26.989304 7.249023,34.86377c2.842682,7.734406 -4.077576,22.973206 -9.76297,24.682602c-5.931122,1.597321 -21.758987,-4.623047 -35.447067,-7.650314c-13.827454,-3.138596 -37.269058,-7.25798 -46.500061,-10.620743c-9.195892,-3.362778 -10.950638,-6.501373 -8.107941,-9.415787z" clip-rule="evenodd"/>
   <path id="svg_9" fill-rule="evenodd" fill="#ABD148" d="m174.381409,226.792358c5.545059,-0.140121 29.268356,10.788895 43.553055,14.740936c14.213531,3.754303 31.726959,4.315567 40.605026,8.266037c8.598358,3.951263 11.985321,-0.08345 14.054993,5.828659c1.965332,5.800781 -6.105835,22.259338 -7.263031,27.948029c-1.298553,5.716705 -3.105713,13.679688 -9.106964,13.651672c-6.106537,-0.280212 -12.985504,-7.131104 -22.075119,-13.828644c-9.335281,-6.836853 -18.320602,-17.906769 -26.566986,-24.771637c-8.352661,-6.922516 -16.460602,-10.536713 -22.145996,-15.91713c-5.649353,-5.409271 -16.460602,-15.721756 -11.054977,-15.917923z" clip-rule="evenodd"/>
   <path id="svg_10" fill-rule="evenodd" fill="#ABD148" d="m133.004318,212.080215c-6.352257,-6.1931 -32.322632,-19.896408 -46.50106,-28.891815c-14.143326,-8.995422 -38.753407,-34.167374 -46.193573,-34.811905c-7.405071,-0.504425 -11.003832,18.523376 -11.038925,26.369858c-0.210579,7.650299 -5.453415,27.539856 1.214651,33.11647c6.738272,5.436493 38.891451,2.45195 51.595865,4.805878c12.669342,2.353958 32.638474,6.529404 41.342041,6.473358c8.493019,-0.140137 15.617317,-1.120926 9.581001,-7.061844z" clip-rule="evenodd"/>
   <path id="svg_11" fill-rule="evenodd" fill="#ABD148" d="m145.292969,230.939789c-12.809723,-2.073715 -19.647606,7.440323 -35.19474,14.523331c-15.547127,7.083008 -39.109497,17.493881 -51.287502,24.415604c-12.177994,6.921722 -17.891018,7.215729 -15.048306,15.650665c2.842697,8.406952 5.080631,2.857391 14.100082,12.049744c9.124718,9.24765 25.859581,23.504303 35.089569,27.539642c9.159828,3.895203 19.005669,1.855804 24.234825,-6.242859c5.229172,-8.18277 18.700584,-46.154449 22.210106,-57.896118c3.474411,-11.684906 5.369537,-21.520981 5.895966,-30.040009z" clip-rule="evenodd"/>
   <path id="svg_12" fill-rule="evenodd" fill="#ABD148" d="m150.727325,253.917953c-2.351379,7.146683 -5.7556,18.075699 -8.843964,28.8918c-3.22876,10.816956 -16.570541,35.946838 -16.500343,44.270508c0,8.154724 10.418144,10.347595 19.715706,11.839722c9.297562,1.492126 12.656998,5.424866 24.256699,4.970581c11.599701,-0.454285 24.497375,-2.659271 29.514023,-5.293457c4.7388,-2.718262 4.677261,-3.13858 -0.237,-14.12442c-5.123886,-11.265259 -15.618607,-31.098175 -22.778,-46.398834c-7.088242,-15.32782 -9.896835,-32.50679 -13.302017,-38.896042c-3.473434,-6.361252 -5.473862,-1.289063 -7.368988,1.176956c-2.069626,2.438019 -2.245132,6.41806 -4.456116,13.563187z" clip-rule="evenodd"/>
   <path id="svg_13" fill-rule="evenodd" fill="#ABD148" d="m172.871384,245.679153c2.351334,7.089874 5.055649,17.206192 11.090988,30.04155c6.001251,12.750549 16.424545,35.645416 24.356033,45.985168c7.720886,10.257233 5.923111,10.726166 13.644028,9.828613c7.686783,-1.06488 24.381622,-13.412689 27.119995,-19.21347c2.492706,-5.800781 3.9832,-2.861237 -3.106995,-10.063232c-7.333893,-7.398041 -27.479462,-23.119019 -34.709061,-30.068756c-7.159393,-6.9505 -2.738373,-6.109802 -8.106949,-11.209259c-5.509933,-5.184265 -18.775909,-14.908279 -24.356033,-19.44725c-5.545013,-4.623825 -8.000702,-8.322876 -8.878067,-7.650314c-0.983643,0.644547 0.455261,4.791183 2.94606,11.796951z" clip-rule="evenodd"/>
   <path id="svg_14" fill-rule="evenodd" fill="#E7F2D6" d="m191.333359,271.601318c-1.368713,0.083282 4.386887,13.367004 8.878082,20.624237c4.528244,7.089844 16.214905,21.717865 17.723022,21.83078c1.194199,-0.112915 -5.123886,-14.740936 -9.615082,-21.83078c-4.562363,-7.257233 -15.549103,-20.540161 -16.986023,-20.624237z" clip-rule="evenodd"/>
   <path id="svg_15" fill-rule="evenodd" fill="#E7F2D6" d="m214.950424,285.752991c1.580231,-0.252228 19.760483,18.719421 22.180099,22.978943c2.071579,4.14743 -5.08783,5.493286 -8.878128,1.766235c-3.859497,-4.008087 -14.738937,-24.324829 -13.301971,-24.745178z" clip-rule="evenodd"/>
   <path id="svg_16" fill-rule="evenodd" fill="#E7F2D6" d="m200.94841,245.063446c-0.841309,-0.112106 7.370972,4.064102 11.791977,7.678329c4.245544,3.586929 13.126511,13.36702 14.038055,13.563187c0.771088,0.028015 -4.562363,-9.415771 -8.843979,-12.974716c-4.458084,-3.643005 -16.074554,-8.126694 -16.986053,-8.2668z" clip-rule="evenodd"/>
   <path id="svg_17" fill-rule="evenodd" fill="#E7F2D6" d="m222.357422,248.033859c2.315292,0.308273 27.196762,9.023453 30.251007,10.592758c2.70134,1.373138 -8.178162,0.027222 -13.264984,-1.766205c-5.089767,-1.876801 -19.233093,-9.106781 -16.986023,-8.826553z" clip-rule="evenodd"/>
   <path id="svg_18" fill-rule="evenodd" fill="#E7F2D6" d="m202.42244,211.46373c1.789841,-1.03688 0.141327,0.448364 7.370941,-1.176987c7.159409,-1.737427 32.602402,-8.715195 35.445084,-8.827271c2.526855,-0.084076 -11.404938,5.688675 -19.19606,8.2388c-7.896393,2.409988 -23.269012,6.16507 -27.304001,6.501343c-4.000854,0.252213 1.788879,-3.811127 3.684036,-4.735886z" clip-rule="evenodd"/>
   <path id="svg_19" fill-rule="evenodd" fill="#E7F2D6" d="m223.831406,225.615402c1.508148,0.672531 9.335312,1.597305 15.512039,2.353149c6.0354,0.644501 22.038757,2.382736 20.670074,1.766235c-1.648529,-0.812668 -23.408463,-5.156265 -29.551086,-5.885635c-6.035385,-0.699783 -8.246353,1.037643 -6.631027,1.766251z" clip-rule="evenodd"/>
   <path id="svg_20" fill-rule="evenodd" fill="#E7F2D6" d="m181.015381,194.958115c0.700943,0.560455 13.615936,-5.856827 21.407059,-10.592743c7.616608,-4.819977 24.847305,-16.98201 24.356003,-17.682587c-0.773041,-0.672546 -20.35614,8.743225 -28.041,13.535172c-7.720947,4.763916 -18.320648,13.927475 -17.722061,14.740158z" clip-rule="evenodd"/>
   <path id="svg_21" fill-rule="evenodd" fill="#E7F2D6" d="m200.94841,166.094299c2.071609,-0.924759 11.828049,-9.27565 11.791977,-10.032288c-0.141373,-0.784622 -10.63385,3.502899 -12.528946,5.296371c-2.001373,1.653381 -1.439896,5.576614 0.736969,4.735916z" clip-rule="evenodd"/>
   <path id="svg_22" fill-rule="evenodd" fill="#E7F2D6" d="m158.86937,124.227776c0.595688,0.532433 0.841339,16.701775 0.737,24.183937c-0.141312,7.370087 -0.948517,20.456863 -1.473984,20.03653c-0.773056,-0.588486 -2.281189,-15.608871 -2.210999,-23.006973c0.071167,-7.454147 2.315308,-21.689888 2.947983,-21.213493z" clip-rule="evenodd"/>
   <path id="svg_23" fill-rule="evenodd" fill="#E7F2D6" d="m129.31929,107.722153c1.333633,2.606148 8.106979,30.937531 8.14209,34.188202c-0.03511,3.026489 -6.808456,-9.611938 -8.14209,-15.328644c-1.403809,-5.800789 -1.403809,-21.381638 0,-18.859558z" clip-rule="evenodd"/>
   <path id="svg_24" fill-rule="evenodd" fill="#E7F2D6" d="m137.46138,151.354141c-0.315872,0.196167 1.68454,8.098679 3.684982,14.740158c1.789856,6.641479 6.948807,24.800461 7.369965,24.7444c0.350983,-0.336273 -3.404236,-19.279892 -5.158981,-25.921371c-1.895126,-6.72554 -5.580109,-13.731323 -5.895966,-13.563187z" clip-rule="evenodd"/>
   <path id="svg_25" fill-rule="evenodd" fill="#E7F2D6" d="m105.700294,140.144897c2.035507,2.802322 10.212669,23.455338 13.301041,31.245758c2.91291,7.706375 6.282036,17.374344 4.421982,14.740173c-2.070587,-2.858368 -13.265945,-23.539413 -16.249031,-31.245789c-2.983093,-7.790405 -3.474411,-17.458374 -1.473991,-14.740143z" clip-rule="evenodd"/>
   <path id="svg_26" fill-rule="evenodd" fill="#E7F2D6" d="m70.991226,143.087311c1.298515,1.765472 15.862991,14.964355 17.723022,15.917145c1.579292,0.784637 -4.351776,-7.930542 -7.369957,-10.592743c-3.088371,-2.718246 -11.54631,-7.089844 -10.353065,-5.324402z" clip-rule="evenodd"/>
   <path id="svg_27" fill-rule="evenodd" fill="#E7F2D6" d="m74.711319,121.285347c-0.140396,0.476395 5.931061,8.266808 7.369957,9.415764c1.333633,1.06488 1.895149,-1.429184 0.737007,-2.942436c-1.263435,-1.597313 -8.071892,-7.033798 -8.106964,-6.473328z" clip-rule="evenodd"/>
   <path id="svg_28" fill-rule="evenodd" fill="#E7F2D6" d="m81.344292,118.342918c0.526421,1.176971 10.844383,12.918663 12.564041,14.151665c1.579285,1.120926 -0.947563,-4.735909 -2.983086,-7.089844c-2.17588,-2.466034 -10.107376,-8.210777 -9.580956,-7.061821z" clip-rule="evenodd"/>
   <path id="svg_29" fill-rule="evenodd" fill="#E7F2D6" d="m103.489304,200.870987c-6.141632,-2.269867 -20.530647,-8.799255 -24.356003,-9.443802c-3.860466,-0.728592 -4.632561,3.026489 1.473984,5.324402c6.141647,2.297882 30.708229,7.454147 34.709076,8.23877c3.684975,0.616531 -5.7556,-1.877533 -11.827057,-4.11937z" clip-rule="evenodd"/>
   <path id="svg_30" fill-rule="evenodd" fill="#E7F2D6" d="m56.98827,201.459473c3.439323,1.064865 31.620701,5.912872 33.936977,5.884842c2.105713,-0.112076 -15.020714,-5.548584 -20.671013,-6.473328c-5.860893,-1.008835 -16.599991,-0.560486 -13.265965,0.588486z" clip-rule="evenodd"/>
   <path id="svg_31" fill-rule="evenodd" fill="#E7F2D6" d="m62.884258,232.11673c2.491756,-0.420319 40.218998,1.513275 45.764011,2.353943c5.158989,0.756653 -6.317116,2.690231 -14.00293,2.353165c-7.756035,-0.420334 -34.042274,-4.370804 -31.761082,-4.707108z" clip-rule="evenodd"/>
   <path id="svg_32" fill-rule="evenodd" fill="#E7F2D6" d="m117.057701,253.267441c-0.070198,-0.784607 -27.123657,12.862808 -34.528725,15.10463c-7.580544,2.241852 -14.032249,14.691315 -14.202339,14.817383c-0.170097,0.126099 6.621796,-7.951721 14.202339,-10.108704c7.405067,-2.2146 34.458527,-19.057465 34.528725,-19.813309z" clip-rule="evenodd"/>
   <path id="svg_33" fill-rule="evenodd" fill="#E7F2D6" d="m133.741272,246.268402c0.77211,1.540512 -28.592651,43.7164 -30.768524,51.422729c-2.246109,7.566254 -7.334885,12.554382 -8.106979,11.18045c-0.842285,-1.59729 0.631683,-12.413422 2.947968,-20.035736c2.246094,-7.650299 34.944885,-44.024628 35.927536,-42.567444z" clip-rule="evenodd"/>
   <path id="svg_34" fill-rule="evenodd" fill="#E7F2D6" d="m152.938309,281.633575c-0.631714,0.924744 -5.580109,27.770905 -5.895981,32.42276c-0.421127,4.398865 2.702316,0.140106 3.684998,-5.325165c1.017761,-5.547821 2.702301,-27.910248 2.210983,-27.097595z" clip-rule="evenodd"/>
   <path id="svg_35" fill-rule="evenodd" fill="#E7F2D6" d="m161.079391,270.424347c-0.561523,0.981598 1.930222,16.814667 5.159973,24.155914c3.229721,7.258026 13.406326,19.644196 14.03801,18.887604c0.455276,-1.00885 -7.932434,-16.925201 -11.091019,-24.183167c-3.29892,-7.258789 -7.579544,-19.70105 -8.106964,-18.860352z" clip-rule="evenodd"/>
   <path id="svg_36" fill-rule="evenodd" fill="#D1ECA9" d="m20.127502,266.214417c-2.070614,-0.616486 -6.843553,1.794312 -7.405071,2.578918c-0.491328,0.699799 3.334044,0.503662 4.421984,1.681427c0.912474,1.092102 0.350954,4.398804 1.579288,4.847992c1.158127,0.280212 5.369547,-1.289093 5.615204,-2.773529c0.105301,-1.542847 -2.246086,-5.747101 -4.211405,-6.334808z" clip-rule="evenodd"/>
   <path id="svg_37" fill-rule="evenodd" fill="#86A338" d="m19.684662,265.611938c-1.965317,-0.588501 -6.948818,1.737457 -7.369961,2.55011c-0.561533,0.616516 3.334027,0.560455 4.38689,1.680603c0.912472,1.092896 0.350939,4.399628 1.579269,4.848785c1.158144,0.280243 5.369553,-1.289063 5.615225,-2.774292c0.10528,-1.569275 -2.246086,-5.68869 -4.211424,-6.305206z" clip-rule="evenodd"/>
   <path id="svg_38" fill-rule="evenodd" fill="#D1ECA9" d="m98.738068,349.561981c-0.737007,0.896759 6.422394,7.201965 8.879059,7.790436c2.210976,0.392273 6.422394,-3.782349 4.913307,-5.072174c-1.579285,-1.345154 -12.950089,-3.586975 -13.792366,-2.718262z" clip-rule="evenodd"/>
   <path id="svg_39" fill-rule="evenodd" fill="#86A338" d="m99.056541,348.637238c-0.737,0.812653 6.422401,7.257233 8.879066,7.762421c2.246086,0.364288 6.352203,-3.727112 4.87822,-5.044189c-1.544197,-1.345123 -12.985207,-3.586975 -13.757286,-2.718231z" clip-rule="evenodd"/>
   <path id="svg_40" fill-rule="evenodd" fill="#D1ECA9" d="m41.576,309.727203c-0.526424,0.588501 -0.140373,1.54129 0.842285,2.101715c1.017754,0.560455 2.246086,0.560455 2.772511,-0.028015s0.175488,-1.540497 -0.842285,-2.101746c-0.982658,-0.58847 -2.210991,-0.560455 -2.772511,0.028046z" clip-rule="evenodd"/>
   <path id="svg_41" fill-rule="evenodd" fill="#86A338" d="m41.891865,309.138702c-0.526424,0.588501 -0.140392,1.54129 0.842285,2.12973c1.01775,0.560486 2.246082,0.532471 2.772507,-0.05603s0.140373,-1.513245 -0.842285,-2.101715c-1.01775,-0.560486 -2.246086,-0.560486 -2.772507,0.028015z" clip-rule="evenodd"/>
   <path id="svg_42" fill-rule="evenodd" fill="#D1ECA9" d="m10.452161,172.37146c-0.526423,0.588501 -0.140376,1.54129 0.842283,2.101746c1.017754,0.588486 2.246085,0.560455 2.772509,-0.028015c0.526423,-0.588501 0.175487,-1.541275 -0.842283,-2.101746c-0.982659,-0.56044 -2.246085,-0.56044 -2.772509,0.028015z" clip-rule="evenodd"/>
   <path id="svg_43" fill-rule="evenodd" fill="#86A338" d="m10.768021,171.81102c-0.526423,0.588486 -0.175485,1.541275 0.842285,2.10173c0.982659,0.560455 2.246086,0.560455 2.77251,-0.028015c0.526423,-0.588501 0.140373,-1.54129 -0.842286,-2.10173c-1.017752,-0.588501 -2.246085,-0.560471 -2.772509,0.028015z" clip-rule="evenodd"/>
   <path id="svg_44" fill-rule="evenodd" fill="#D1ECA9" d="m142.35025,360.370911c-0.526443,0.589264 -0.140381,1.54126 0.87738,2.101715c0.98262,0.588501 2.210968,0.560486 2.737411,-0.028015s0.175461,-1.540436 -0.842285,-2.100952c-0.982666,-0.589294 -2.211014,-0.560455 -2.772507,0.027252z" clip-rule="evenodd"/>
   <path id="svg_45" fill-rule="evenodd" fill="#86A338" d="m142.666092,360.672943c-0.526443,0.58847 -0.140381,1.513245 0.842285,2.101746c1.017746,0.560455 2.246063,0.560455 2.772507,-0.028015c0.526398,-0.616547 0.140366,-1.540558 -0.842285,-2.129791c-0.982666,-0.560455 -2.246063,-0.53241 -2.772507,0.056061z" clip-rule="evenodd"/>
   <path id="svg_46" fill-rule="evenodd" fill="#D1ECA9" d="m18.453844,145.581375c-0.947567,1.036865 -0.280752,2.690231 1.473989,3.699051c1.754772,1.008835 3.965763,0.98082 4.878235,-0.056046c0.947565,-1.03685 0.28075,-2.718231 -1.474007,-3.727066c-1.754757,-1.008835 -3.965748,-0.98082 -4.878218,0.084061z" clip-rule="evenodd"/>
   <path id="svg_47" fill-rule="evenodd" fill="#86A338" d="m18.980267,144.57254c-0.947567,1.036865 -0.28075,2.690216 1.474007,3.699066c1.789846,1.00882 3.965746,0.980789 4.913313,-0.056046c0.912472,-1.036865 0.28075,-2.718246 -1.5091,-3.727081c-1.754757,-1.00882 -3.930653,-0.980804 -4.87822,0.084061z" clip-rule="evenodd"/>
   <path id="svg_48" fill-rule="evenodd" fill="#D1ECA9" d="m25.308039,289.872925c-0.947567,1.036896 -0.280767,2.718262 1.473986,3.727081s3.965752,0.980804 4.913334,-0.055237c0.912472,-1.064911 0.245657,-2.718262 -1.5091,-3.727112c-1.754757,-1.010376 -3.930658,-0.981567 -4.87822,0.055267z" clip-rule="evenodd"/>
   <path id="svg_49" fill-rule="evenodd" fill="#86A338" d="m25.834461,289.72583c-0.947565,1.036835 -0.28075,2.718262 1.509098,3.727051c1.754757,1.00885 3.930656,0.980835 4.878223,-0.05603c0.912472,-1.064087 0.280746,-2.717438 -1.509102,-3.727051c-1.754757,-1.00885 -3.930656,-0.980835 -4.87822,0.05603z" clip-rule="evenodd"/>
   <path id="svg_50" fill-rule="evenodd" fill="#D1ECA9" d="m55.410965,322.960846c-0.526421,0.588501 -0.140388,1.540497 0.842285,2.100952c1.017757,0.588501 2.246082,0.561249 2.772511,-0.028015c0.526417,-0.58847 0.175468,-1.540527 -0.84227,-2.100952c-0.982674,-0.58847 -2.211006,-0.561249 -2.772526,0.028015z" clip-rule="evenodd"/>
   <path id="svg_51" fill-rule="evenodd" fill="#86A338" d="m55.45145,322.400391c-0.526436,0.588501 -0.140388,1.513245 0.84227,2.101746c1.017773,0.560455 2.246105,0.560455 2.772526,-0.028015c0.526428,-0.616516 0.140381,-1.540527 -0.842285,-2.128998c-1.01775,-0.561218 -2.246082,-0.533203 -2.772511,0.055267z" clip-rule="evenodd"/>
   <path id="svg_52" fill-rule="evenodd" fill="#D1ECA9" d="m37.229733,113.298759c-0.526421,0.588486 -0.140392,1.513245 0.842285,2.101723c1.017754,0.560463 2.246086,0.560463 2.772511,-0.056038c0.526424,-0.588493 0.175472,-1.513252 -0.842285,-2.10173c-0.982658,-0.560463 -2.246086,-0.560463 -2.772511,0.056046z" clip-rule="evenodd"/>
   <path id="svg_53" fill-rule="evenodd" fill="#86A338" d="m37.545578,112.710274c-0.526421,0.588486 -0.175468,1.540489 0.842289,2.10173c0.982655,0.588478 2.246082,0.560463 2.772522,-0.02803c0.526424,-0.588478 0.140377,-1.54126 -0.842285,-2.101723c-1.017769,-0.588486 -2.246086,-0.560463 -2.772526,0.028023z" clip-rule="evenodd"/>
   <path id="svg_54" fill-rule="evenodd" fill="#ABD148" d="m132.934616,226.460129c-2.9935,0.678192 -37.445946,-2.643295 -53.986694,-4.041916c-16.509342,-1.415085 -41.898476,-6.639359 -48.824163,-3.731369c-6.834061,3.016846 -9.296095,15.959702 -5.950729,22.987411c3.104528,6.935318 5.327396,22.567535 13.685503,24.427643c8.36097,1.702972 33.329212,-15.446167 45.694759,-19.291534c12.33374,-3.828735 26.192444,-8.587311 33.944855,-12.712891c7.529297,-4.102524 18.42997,-8.315521 15.43647,-7.637344z" clip-rule="evenodd"/>
   <path id="svg_55" fill-rule="evenodd" fill="#E7F2D6" d="m56.822021,240.699448c0.783096,0.799591 16.122932,1.985748 23.721924,0.432251c7.521439,-1.573013 21.451065,-8.987732 20.894066,-9.80571c-0.833412,-0.698227 -17.633446,4.074707 -25.138168,5.575577c-7.538361,1.64299 -20.137634,3.065933 -19.477821,3.797882z" clip-rule="evenodd"/>
   <path id="svg_56" fill-rule="evenodd" fill="#E7F2D6" d="m49.813194,228.216492c2.311787,-0.335556 28.513321,1.271805 31.85511,1.951157c2.951958,0.586533 -7.885368,2.26236 -13.244995,1.92244c-5.383423,-0.41951 -20.849045,-3.529617 -18.610115,-3.873596z" clip-rule="evenodd"/>
  </g>
 </g>
</svg>